<svg id="Groupe_19398" data-name="Groupe 19398" xmlns="http://www.w3.org/2000/svg" width="24" height="24" viewBox="0 0 24 24">
  <rect id="Rectangle_4236" data-name="Rectangle 4236" width="24" height="24" fill="#fff" opacity="0"/>
  <g id="Groupe_19415" data-name="Groupe 19415" transform="translate(3.25 2.856)">
    <path id="Tracé_32267" data-name="Tracé 32267" d="M14.44,7.25a.742.742,0,0,1-.53-.22L11.88,5,9.85,7.03A.75.75,0,0,1,8.79,5.97l2.56-2.56a.754.754,0,0,1,1.06,0l2.56,2.56a.754.754,0,0,1,0,1.06A.742.742,0,0,1,14.44,7.25Z" transform="translate(-3.25 -3.192)" fill="#0370ee"/>
    <path id="Tracé_32268" data-name="Tracé 32268" d="M11.88,14.93a.755.755,0,0,1-.75-.75V4.01a.75.75,0,1,1,1.5,0V14.18A.749.749,0,0,1,11.88,14.93Z" transform="translate(-3.25 -3.192)" fill="#0370ee"/>
    <path id="Tracé_32269" data-name="Tracé 32269" d="M12,20.75A8.374,8.374,0,0,1,3.25,12a.75.75,0,0,1,1.5,0A6.935,6.935,0,0,0,12,19.25,6.935,6.935,0,0,0,19.25,12a.75.75,0,0,1,1.5,0A8.374,8.374,0,0,1,12,20.75Z" transform="translate(-3.25 -3.192)" fill="#0370ee"/>
  </g>
</svg>
