<svg xmlns="http://www.w3.org/2000/svg" width="16" height="16" viewBox="0 0 16 16">
  <g id="Groupe_23" data-name="Groupe 23" transform="translate(-0.283)">
    <rect id="Rectangle_53" data-name="Rectangle 53" width="16" height="16" rx="4" transform="translate(0.283)" fill="rgba(233,251,246,0)"/>
    <g id="Groupe_24" data-name="Groupe 24" transform="translate(1.327 1.327)">
      <path id="Tracé_10" data-name="Tracé 10" d="M12.475,9.117,9.117,12.475a2.375,2.375,0,1,1,3.358-3.358Z" transform="translate(-4.159 -4.159)" fill="none" stroke="#0370ee" stroke-linecap="round" stroke-linejoin="round" stroke-width="1"/>
      <path id="Tracé_11" data-name="Tracé 11" d="M12.571,5.084A6.392,6.392,0,0,0,8.709,3.73,7.311,7.311,0,0,0,2.663,7.5a3.534,3.534,0,0,0,0,3.444,9.508,9.508,0,0,0,1.8,2.1" transform="translate(-2.072 -2.582)" fill="none" stroke="#0370ee" stroke-linecap="round" stroke-linejoin="round" stroke-width="1"/>
      <path id="Tracé_12" data-name="Tracé 12" d="M8.42,15.628a6.115,6.115,0,0,0,2.376.491,7.311,7.311,0,0,0,6.046-3.77,3.534,3.534,0,0,0,0-3.444,10.766,10.766,0,0,0-.7-.976" transform="translate(-4.159 -3.994)" fill="none" stroke="#0370ee" stroke-linecap="round" stroke-linejoin="round" stroke-width="1"/>
      <path id="Tracé_13" data-name="Tracé 13" d="M14.561,12.7a2.366,2.366,0,0,1-1.872,1.872" transform="translate(-5.595 -5.599)" fill="none" stroke="#0370ee" stroke-linecap="round" stroke-linejoin="round" stroke-width="1"/>
      <path id="Tracé_14" data-name="Tracé 14" d="M6.958,14.53,2,19.488" transform="translate(-2 -6.214)" fill="none" stroke="#0370ee" stroke-linecap="round" stroke-linejoin="round" stroke-width="1"/>
      <path id="Tracé_15" data-name="Tracé 15" d="M19.488,2,14.53,6.958" transform="translate(-6.214 -2)" fill="none" stroke="#0370ee" stroke-linecap="round" stroke-linejoin="round" stroke-width="1"/>
    </g>
  </g>
</svg>
