<svg xmlns="http://www.w3.org/2000/svg" width="19.5" height="21.5" viewBox="0 0 19.5 21.5">
  <g id="Groupe_20343" data-name="Groupe 20343" transform="translate(-2.25 -1.25)">
    <path id="Tracé_32486" data-name="Tracé 32486" d="M3.092,9.4H20.916" fill="none" stroke="#1e1f25" stroke-linecap="round" stroke-linejoin="round" stroke-width="1.5"/>
    <path id="Tracé_32487" data-name="Tracé 32487" d="M16.443,13.31h.009" fill="none" stroke="#1e1f25" stroke-linecap="round" stroke-linejoin="round" stroke-width="1.5"/>
    <path id="Tracé_32488" data-name="Tracé 32488" d="M12.005,13.31h.009" fill="none" stroke="#1e1f25" stroke-linecap="round" stroke-linejoin="round" stroke-width="1.5"/>
    <path id="Tracé_32489" data-name="Tracé 32489" d="M7.558,13.31h.009" fill="none" stroke="#1e1f25" stroke-linecap="round" stroke-linejoin="round" stroke-width="1.5"/>
    <path id="Tracé_32490" data-name="Tracé 32490" d="M16.443,17.2h.009" fill="none" stroke="#1e1f25" stroke-linecap="round" stroke-linejoin="round" stroke-width="1.5"/>
    <path id="Tracé_32491" data-name="Tracé 32491" d="M12.005,17.2h.009" fill="none" stroke="#1e1f25" stroke-linecap="round" stroke-linejoin="round" stroke-width="1.5"/>
    <path id="Tracé_32492" data-name="Tracé 32492" d="M7.558,17.2h.009" fill="none" stroke="#1e1f25" stroke-linecap="round" stroke-linejoin="round" stroke-width="1.5"/>
    <path id="Tracé_32493" data-name="Tracé 32493" d="M16.043,2V5.291" fill="none" stroke="#1e1f25" stroke-linecap="round" stroke-linejoin="round" stroke-width="1.5"/>
    <path id="Tracé_32494" data-name="Tracé 32494" d="M7.965,2V5.291" fill="none" stroke="#1e1f25" stroke-linecap="round" stroke-linejoin="round" stroke-width="1.5"/>
    <path id="Tracé_32495" data-name="Tracé 32495" d="M16.238,3.579H7.771C4.834,3.579,3,5.215,3,8.222v9.05C3,20.326,4.834,22,7.771,22h8.458C19.175,22,21,20.355,21,17.347V8.222C21.009,5.215,19.184,3.579,16.238,3.579Z" fill="none" stroke="#1e1f25" stroke-linecap="round" stroke-linejoin="round" stroke-width="1.5" fill-rule="evenodd"/>
  </g>
</svg>
