<svg xmlns="http://www.w3.org/2000/svg" width="24" height="24" viewBox="0 0 24 24">
  <g id="Groupe_19628" data-name="Groupe 19628" transform="translate(-27 -10)">
    <rect id="Rectangle_4617" data-name="Rectangle 4617" width="24" height="24" transform="translate(27 10)" fill="none"/>
    <g id="Groupe_19626" data-name="Groupe 19626">
      <g id="Groupe_19628-2" data-name="Groupe 19628">
        <rect id="Rectangle_4617-2" data-name="Rectangle 4617" width="24" height="24" transform="translate(27 10)" fill="none"/>
        <g id="Groupe_20325" data-name="Groupe 20325" transform="translate(27 10)">
          <path id="Tracé_32481" data-name="Tracé 32481" d="M15,22.75H9c-5.43,0-7.75-2.32-7.75-7.75V9C1.25,3.57,3.57,1.25,9,1.25h6c5.43,0,7.75,2.32,7.75,7.75v6C22.75,20.43,20.43,22.75,15,22.75Zm-6-20C4.39,2.75,2.75,4.39,2.75,9v6c0,4.61,1.64,6.25,6.25,6.25h6c4.61,0,6.25-1.64,6.25-6.25V9c0-4.61-1.64-6.25-6.25-6.25Z" fill="#1e1f25"/>
          <path id="Tracé_32482" data-name="Tracé 32482" d="M14.111,17.61a.742.742,0,0,1-.53-.22.754.754,0,0,1,0-1.06l3.04-3.04a.75.75,0,0,1,1.06,1.06l-3.04,3.04A.749.749,0,0,1,14.111,17.61Z" fill="#1e1f25"/>
          <path id="Tracé_32483" data-name="Tracé 32483" d="M17.15,14.57H6.85a.75.75,0,1,1,0-1.5H17.16a.75.75,0,1,1-.01,1.5Z" fill="#1e1f25"/>
          <path id="Tracé_32484" data-name="Tracé 32484" d="M6.849,10.93a.742.742,0,0,1-.53-.22.754.754,0,0,1,0-1.06l3.04-3.04a.75.75,0,0,1,1.06,1.06l-3.04,3.04A.742.742,0,0,1,6.849,10.93Z" fill="#1e1f25"/>
          <path id="Tracé_32485" data-name="Tracé 32485" d="M17.15,10.93H6.85a.75.75,0,0,1,0-1.5H17.16a.75.75,0,1,1-.01,1.5Z" fill="#1e1f25"/>
        </g>
      </g>
    </g>
  </g>
</svg>
