<svg xmlns="http://www.w3.org/2000/svg" width="205.586" height="121.784" viewBox="0 0 205.586 121.784">
  <g id="Groupe_19630" data-name="Groupe 19630" transform="translate(0 -150.48)">
    <g id="Groupe_19629" data-name="Groupe 19629" transform="translate(0 242.111)">
      <path id="Tracé_32436" data-name="Tracé 32436" d="M14.853,537.435A14.618,14.618,0,0,1,0,522.541v-.083a14.719,14.719,0,0,1,15.1-14.977c5.461,0,8.73,1.821,11.419,4.468l-4.054,4.675c-2.234-2.027-4.51-3.268-7.405-3.268-4.882,0-8.4,4.054-8.4,9.019v.082c0,4.965,3.434,9.1,8.4,9.1,3.31,0,5.337-1.324,7.612-3.393l4.054,4.1A14.8,14.8,0,0,1,14.853,537.435Z" transform="translate(0 -507.369)" fill="#fff"/>
      <path id="Tracé_32437" data-name="Tracé 32437" d="M123.09,542.807c-4.074,0-6.576,2.461-6.576,7.625v8.56h-6.133V536.378h6.133v4.775c1.25-2.986,3.268-4.923,6.9-4.761v6.416Z" transform="translate(-82.015 -528.84)" fill="#fff"/>
      <path id="Tracé_32438" data-name="Tracé 32438" d="M168.637,512.988v-5.447h6.456v5.447Zm.161,24.578V514.952h6.133v22.615Z" transform="translate(-125.3 -507.414)" fill="#fff"/>
      <path id="Tracé_32439" data-name="Tracé 32439" d="M221.41,558.992V546.357c0-2.9-1.372-4.4-3.712-4.4s-3.833,1.493-3.833,4.4v12.635h-6.133V536.378h6.133v3.483c1.412-1.816,3.228-3.47,6.334-3.47,4.64,0,7.343,3.066,7.343,8.029v14.572Z" transform="translate(-154.348 -528.84)" fill="#fff"/>
      <path id="Tracé_32440" data-name="Tracé 32440" d="M306.638,558.992v-2.911a7.815,7.815,0,0,1-6.254,2.911c-4.076,0-7.707-2.508-7.707-6.785v-.081c0-4.721,3.591-6.9,8.716-6.9a15.359,15.359,0,0,1,5.285.888v-.363c0-2.542-1.574-3.954-4.639-3.954a15.914,15.914,0,0,0-5.972,1.17l-1.533-4.68a19.891,19.891,0,0,1,8.592-1.91c6.7,0,9.444,3.645,9.444,9.495v13.12Zm.121-9.286a9.507,9.507,0,0,0-3.914-.807c-2.623,0-4.237,1.049-4.237,2.986v.081c0,1.654,1.372,2.622,3.349,2.622,2.865,0,4.8-1.574,4.8-3.793Z" transform="translate(-217.464 -528.84)" fill="#fff"/>
      <path id="Tracé_32441" data-name="Tracé 32441" d="M392.7,555.217a6.313,6.313,0,0,1-1.645,2.046,7.256,7.256,0,0,1-2.447,1.286,10.178,10.178,0,0,1-3.059.443,14.025,14.025,0,0,1-4.768-.865,14.856,14.856,0,0,1-4.262-2.342l1.645-2.32a14.386,14.386,0,0,0,3.692,2.067,10.946,10.946,0,0,0,3.861.718,5.356,5.356,0,0,0,3.249-.928,2.972,2.972,0,0,0,1.266-2.532v-.085a2.257,2.257,0,0,0-.443-1.392,3.985,3.985,0,0,0-1.2-1.034,9.653,9.653,0,0,0-1.751-.78q-.992-.337-2.047-.633-1.266-.379-2.552-.823a10.422,10.422,0,0,1-2.321-1.118,5.666,5.666,0,0,1-1.688-1.688,4.578,4.578,0,0,1-.653-2.531v-.084a5.894,5.894,0,0,1,.548-2.553,5.725,5.725,0,0,1,1.54-1.983,7.043,7.043,0,0,1,2.362-1.266,9.629,9.629,0,0,1,2.975-.443,13.536,13.536,0,0,1,4.093.654,15.383,15.383,0,0,1,3.755,1.751l-1.477,2.447a14.8,14.8,0,0,0-3.186-1.54,10.071,10.071,0,0,0-3.27-.57,4.81,4.81,0,0,0-3.08.907,2.779,2.779,0,0,0-1.14,2.257v.084a2.042,2.042,0,0,0,.465,1.329,4.071,4.071,0,0,0,1.244.991,11.214,11.214,0,0,0,1.793.76q1.014.338,2.11.675,1.265.379,2.511.844a9.841,9.841,0,0,1,2.257,1.181,5.769,5.769,0,0,1,1.625,1.73,4.743,4.743,0,0,1,.612,2.489v.085A6.025,6.025,0,0,1,392.7,555.217Z" transform="translate(-279.757 -528.84)" fill="#fff"/>
      <path id="Tracé_32442" data-name="Tracé 32442" d="M453.4,530.855a3.293,3.293,0,0,0,.975,2.724,4,4,0,0,0,2.562.772,6.309,6.309,0,0,0,3.049-.732V536.3a7,7,0,0,1-1.728.671,8.7,8.7,0,0,1-2.053.223,8.276,8.276,0,0,1-2.358-.325,4.838,4.838,0,0,1-1.89-1.037,4.769,4.769,0,0,1-1.241-1.85,7.439,7.439,0,0,1-.447-2.724V517.324h-2.928v-2.741h2.928v-7.538H453.4v7.538h6.668v2.741H453.4Z" transform="translate(-332.38 -507.045)" fill="#fff"/>
      <path id="Tracé_32443" data-name="Tracé 32443" d="M523.866,536.378h3.066v22.615h-3.066v-4.2a9.825,9.825,0,0,1-2.745,2.885,8.526,8.526,0,0,1-4.7,1.318,7.328,7.328,0,0,1-3.072-.733,6.97,6.97,0,0,1-2.5-1.715,7.54,7.54,0,0,1-1.573-2.643,10.064,10.064,0,0,1-.545-3.389V536.378h3.107v13.368a6.711,6.711,0,0,0,1.493,4.6,5.4,5.4,0,0,0,4.277,1.695,6.561,6.561,0,0,0,2.481-.464,5.578,5.578,0,0,0,1.977-1.331,6.437,6.437,0,0,0,1.311-2.078,7.112,7.112,0,0,0,.485-2.663Z" transform="translate(-377.998 -528.84)" fill="#fff"/>
      <path id="Tracé_32444" data-name="Tracé 32444" d="M610.372,537.2V532.3a16.523,16.523,0,0,1-1.471,1.824,10.108,10.108,0,0,1-1.8,1.534,8.4,8.4,0,0,1-2.217,1.036,9.278,9.278,0,0,1-2.715.373,9.868,9.868,0,0,1-3.772-.746,10.05,10.05,0,0,1-3.273-2.176,10.607,10.607,0,0,1-2.321-3.5,13.258,13.258,0,0,1,0-9.45,10.608,10.608,0,0,1,2.321-3.5,10.334,10.334,0,0,1,3.273-2.2,9.636,9.636,0,0,1,3.772-.767,9.493,9.493,0,0,1,2.736.373,9.173,9.173,0,0,1,2.238.995,9.572,9.572,0,0,1,1.8,1.451,12.94,12.94,0,0,1,1.43,1.74V507.045h3.191V537.2Zm-.517-14.7a7.841,7.841,0,0,0-1.741-2.6,8.165,8.165,0,0,0-2.487-1.67,7.213,7.213,0,0,0-2.881-.6,7.723,7.723,0,0,0-2.942.557,6.879,6.879,0,0,0-2.383,1.608,7.659,7.659,0,0,0-1.616,2.6,9.524,9.524,0,0,0-.6,3.484,9.244,9.244,0,0,0,.6,3.423,8.01,8.01,0,0,0,1.637,2.619,7.07,7.07,0,0,0,2.4,1.67,7.389,7.389,0,0,0,2.9.577,7.212,7.212,0,0,0,2.881-.6,8.154,8.154,0,0,0,2.487-1.67,7.8,7.8,0,0,0,1.741-2.619,8.8,8.8,0,0,0,.642-3.4A8.647,8.647,0,0,0,609.855,522.5Z" transform="translate(-439.813 -507.045)" fill="#fff"/>
      <path id="Tracé_32445" data-name="Tracé 32445" d="M688.834,511.205v-4.16h3.551v4.16Zm.2,25.992V514.583h3.107V537.2Z" transform="translate(-511.815 -507.045)" fill="#fff"/>
      <path id="Tracé_32446" data-name="Tracé 32446" d="M734.129,551.96a11.326,11.326,0,0,1-2.357,3.609,11,11,0,0,1-3.587,2.44,11.294,11.294,0,0,1-4.506.9,10.983,10.983,0,0,1-4.463-.9,11.267,11.267,0,0,1-3.546-2.419,10.858,10.858,0,0,1-2.336-3.567,11.352,11.352,0,0,1-.835-4.339,11.514,11.514,0,0,1,.835-4.36,10.952,10.952,0,0,1,5.9-6.049,11.406,11.406,0,0,1,12.577,2.42,10.885,10.885,0,0,1,2.336,3.567,11.612,11.612,0,0,1-.021,8.7Zm-3.046-7.585a8.252,8.252,0,0,0-1.689-2.684,8.116,8.116,0,0,0-2.544-1.81,7.558,7.558,0,0,0-3.171-.666,7.858,7.858,0,0,0-3.213.645,7.169,7.169,0,0,0-2.482,1.789,8.6,8.6,0,0,0-1.606,2.663,9.032,9.032,0,0,0-.584,3.266,8.883,8.883,0,0,0,.606,3.288,8.143,8.143,0,0,0,1.668,2.663,8.009,8.009,0,0,0,2.524,1.789,7.546,7.546,0,0,0,3.171.666,7.855,7.855,0,0,0,3.211-.645,7.5,7.5,0,0,0,2.5-1.769,8.115,8.115,0,0,0,1.627-2.642,9.331,9.331,0,0,0-.021-6.555Z" transform="translate(-529.398 -528.84)" fill="#fff"/>
    </g>
    <path id="Tracé_32447" data-name="Tracé 32447" d="M316.849,204.8a.374.374,0,0,1,.371-.371H319.9a.369.369,0,0,1,.371.371v.112a.365.365,0,0,1-.371.371h-2.684a.369.369,0,0,1-.371-.371Zm0,1.71a.374.374,0,0,1,.371-.371h.119a.368.368,0,0,1,.364.371v.119a.368.368,0,0,1-.364.371h-.119a.374.374,0,0,1-.371-.371Zm-.855,5.255a.374.374,0,0,1-.371.371h-.112a.369.369,0,0,1-.371-.371v-.112a.365.365,0,0,1,.371-.371h.112a.369.369,0,0,1,.371.371Zm0-1.71a.374.374,0,0,1-.371.371H312.94a.374.374,0,0,1-.371-.371v-.119a.374.374,0,0,1,.371-.371h2.683a.374.374,0,0,1,.371.371Zm0-1.716a.369.369,0,0,1-.371.371h-.112a.365.365,0,0,1-.371-.371v-.112a.365.365,0,0,1,.371-.372h.112a.369.369,0,0,1,.371.372Zm0-1.71a.374.374,0,0,1-.371.371H312.94a.374.374,0,0,1-.371-.371v-.119a.374.374,0,0,1,.371-.371h2.683a.374.374,0,0,1,.371.371Zm0-1.717a.369.369,0,0,1-.371.371h-.112a.365.365,0,0,1-.371-.371V204.8a.369.369,0,0,1,.371-.371h.112a.374.374,0,0,1,.371.371Zm1.71,5.143a.368.368,0,0,1-.364.371h-.119a.374.374,0,0,1-.371-.371v-.119a.374.374,0,0,1,.371-.371h.119a.368.368,0,0,1,.364.371Zm2.571-1.716a.365.365,0,0,1-.371.371h-2.684a.369.369,0,0,1-.371-.371v-.112a.37.37,0,0,1,.371-.372H319.9a.365.365,0,0,1,.371.372Zm1.717,0a.369.369,0,0,1-.371.371H321.5a.369.369,0,0,1-.371-.371v-.112a.37.37,0,0,1,.371-.372h.119a.37.37,0,0,1,.371.372Zm0-1.71a.374.374,0,0,1-.371.371h-2.691a.368.368,0,0,1-.364-.371v-.119a.368.368,0,0,1,.364-.371h2.691a.374.374,0,0,1,.371.371Zm0-1.717a.369.369,0,0,1-.371.371H321.5a.369.369,0,0,1-.371-.371V204.8a.374.374,0,0,1,.371-.371h.119a.374.374,0,0,1,.371.371Zm1.709,1.717a.374.374,0,0,1-.371.371h-.112a.369.369,0,0,1-.371-.371v-.119a.369.369,0,0,1,.371-.371h.112a.374.374,0,0,1,.371.371Zm2.572-1.717a.369.369,0,0,1-.371.371h-2.684a.365.365,0,0,1-.371-.371V204.8a.369.369,0,0,1,.371-.371H325.9a.374.374,0,0,1,.371.371Zm-14.861-39.372h-.35v15.7l-7.924,15.828h7.924v7.35a23.12,23.12,0,0,1,.35-46.236V150.48a30.829,30.829,0,0,0-.7,61.651c.112.007.231.007.35.007V227.9h.35a31.179,31.179,0,1,0,0-62.359Zm-7.14,30.829,6.789-13.565.357-.715.343.687,6.79,13.593Zm7.49,30.829V212.138h2.151a.374.374,0,0,0,.371-.372v-.112a.369.369,0,0,0-.371-.371h-2.5v-.862a.375.375,0,0,0,.3-.364v-.119a.375.375,0,0,0-.3-.364v-.862h2.5a.369.369,0,0,0,.371-.371v-.112a.369.369,0,0,0-.371-.371h-2.5V207a.375.375,0,0,0,.3-.364v-.119a.375.375,0,0,0-.3-.364v-.862h2.5a.369.369,0,0,0,.371-.372V204.8a.374.374,0,0,0-.371-.371h-2.151v-7.357h7.925l-7.925-15.856V166.252a30.477,30.477,0,0,1,0,60.95Z" transform="translate(-208.479 0)" fill="#fff"/>
  </g>
</svg>
