<svg xmlns="http://www.w3.org/2000/svg" width="164.204" height="44.053" viewBox="0 0 164.204 44.053">
  <g id="Groupe_266" data-name="Groupe 266" transform="translate(-63.632 -253.769)">
    <g id="Groupe_256" data-name="Groupe 256" transform="translate(63.632 253.769)">
      <path id="Tracé_641" data-name="Tracé 641" d="M102.815,282.17a17.622,17.622,0,0,1-17.622,17.622V264.548A17.622,17.622,0,0,1,102.815,282.17Z" transform="translate(-67.571 -255.738)" fill="#18227b"/>
      <path id="Tracé_642" data-name="Tracé 642" d="M87.751,293.461h-.065a.206.206,0,0,0-.212.213v.057a.206.206,0,0,0,.212.213h.065a.212.212,0,0,0,.213-.213v-.057A.212.212,0,0,0,87.751,293.461Zm3.425-.981H89.639a.209.209,0,0,0-.212.2v.074a.216.216,0,0,0,.212.212h1.537a.216.216,0,0,0,.212-.212v-.074A.209.209,0,0,0,91.176,292.48Zm2.444-.981H92.091a.21.21,0,0,0-.212.213v.065a.21.21,0,0,0,.212.213H93.62a.211.211,0,0,0,.213-.213v-.065A.211.211,0,0,0,93.62,291.5Zm-3.425,0H88.658a.216.216,0,0,0-.213.213v.065a.216.216,0,0,0,.213.213h1.537a.211.211,0,0,0,.213-.213v-.065A.211.211,0,0,0,90.195,291.5Zm.981,0H91.11a.216.216,0,0,0-.213.213v.065a.216.216,0,0,0,.213.213h.065a.216.216,0,0,0,.212-.213v-.065A.216.216,0,0,0,91.176,291.5Zm-.981,1.962H88.658a.211.211,0,0,0-.213.213v.057a.211.211,0,0,0,.213.213h1.537a.206.206,0,0,0,.213-.213v-.057A.206.206,0,0,0,90.195,293.461Zm-2.444,1.953h-.065a.206.206,0,0,0-.212.213v.065a.211.211,0,0,0,.212.212h.065a.217.217,0,0,0,.213-.212v-.065A.212.212,0,0,0,87.751,295.414Zm4.405-2.934h-.065a.2.2,0,0,0-.212.2v.074a.21.21,0,0,0,.212.212h.065a.216.216,0,0,0,.213-.212v-.074A.209.209,0,0,0,92.157,292.48Zm-3.425,1.953h-.074a.216.216,0,0,0-.213.213v.065a.211.211,0,0,0,.213.213h.074a.2.2,0,0,0,.2-.213v-.065A.209.209,0,0,0,88.732,294.433Zm0-1.953h-.074a.209.209,0,0,0-.213.2v.074a.216.216,0,0,0,.213.212h.074a.209.209,0,0,0,.2-.212v-.074A.2.2,0,0,0,88.732,292.48Zm-.981,0H86.215a.209.209,0,0,0-.213.2v.074a.216.216,0,0,0,.213.212h1.537a.217.217,0,0,0,.213-.212v-.074A.21.21,0,0,0,87.751,292.48Zm0-.981h-.065a.211.211,0,0,0-.212.213v.065a.211.211,0,0,0,.212.213h.065a.217.217,0,0,0,.213-.213v-.065A.217.217,0,0,0,87.751,291.5Zm3.425,1.962H91.11a.211.211,0,0,0-.213.213v.057a.211.211,0,0,0,.213.213h.065a.211.211,0,0,0,.212-.213v-.057A.211.211,0,0,0,91.176,293.461Zm-3.425.973H86.215a.216.216,0,0,0-.213.213v.065a.211.211,0,0,0,.213.213h1.537a.212.212,0,0,0,.213-.213v-.065A.217.217,0,0,0,87.751,294.433Z" transform="translate(-67.718 -260.661)" fill="#ff3800"/>
      <path id="Tracé_643" data-name="Tracé 643" d="M81.255,285.1v.49a.211.211,0,0,1,.172.2v.074a.2.2,0,0,1-.172.2v.5h1.43a.211.211,0,0,1,.212.212v.057a.211.211,0,0,1-.212.213h-1.43v.5a.2.2,0,0,1,.172.2v.065a.22.22,0,0,1-.172.213v.49h1.43a.211.211,0,0,1,.212.213v.065a.216.216,0,0,1-.212.212H81.131c-.1,0-.2,0-.3-.008a17.62,17.62,0,0,1,.425-35.235v4.405a13.216,13.216,0,0,0-.107,26.432h1.537a.216.216,0,0,1,.212.213v.065a.216.216,0,0,1-.212.213Z" transform="translate(-63.632 -253.769)" fill="#ff3800"/>
      <path id="Tracé_644" data-name="Tracé 644" d="M88.614,284.139H79.8l4.409-8.811Z" transform="translate(-66.586 -257.707)" fill="#ff3800"/>
    </g>
    <g id="Groupe_257" data-name="Groupe 257" transform="translate(107.688 266.984)">
      <path id="Tracé_645" data-name="Tracé 645" d="M126.214,287.524a8.543,8.543,0,0,1-8.68-8.7v-.048a8.6,8.6,0,0,1,8.825-8.753,8.734,8.734,0,0,1,6.674,2.611l-2.369,2.732a6.246,6.246,0,0,0-4.328-1.91,5.015,5.015,0,0,0-4.909,5.271v.048a5.027,5.027,0,0,0,4.909,5.319,6.106,6.106,0,0,0,4.449-1.983l2.369,2.394A8.65,8.65,0,0,1,126.214,287.524Z" transform="translate(-117.534 -269.953)" fill="#18227b"/>
      <path id="Tracé_646" data-name="Tracé 646" d="M145.244,279.085c-2.381,0-3.843,1.439-3.843,4.456v5h-3.585V275.328H141.4v2.79a3.9,3.9,0,0,1,4.032-2.782v3.749Z" transform="translate(-121.239 -270.923)" fill="#18227b"/>
      <path id="Tracé_647" data-name="Tracé 647" d="M148.521,273.213v-3.184h3.773v3.184Zm.094,14.364V274.36H152.2v13.216Z" transform="translate(-123.194 -269.955)" fill="#18227b"/>
      <path id="Tracé_648" data-name="Tracé 648" d="M163.7,288.544V281.16c0-1.7-.8-2.57-2.169-2.57s-2.24.873-2.24,2.57v7.384h-3.584V275.328h3.584v2.036a4.472,4.472,0,0,1,3.7-2.028c2.712,0,4.291,1.792,4.291,4.692v8.516Z" transform="translate(-124.507 -270.923)" fill="#18227b"/>
      <path id="Tracé_649" data-name="Tracé 649" d="M179.473,288.544v-1.7a4.568,4.568,0,0,1-3.655,1.7c-2.382,0-4.5-1.465-4.5-3.965v-.047c0-2.758,2.1-4.032,5.094-4.032a8.963,8.963,0,0,1,3.089.519v-.213c0-1.486-.92-2.311-2.712-2.311a9.3,9.3,0,0,0-3.49.683l-.9-2.735a11.615,11.615,0,0,1,5.021-1.116c3.915,0,5.519,2.13,5.519,5.549v7.667Zm.071-5.427a5.563,5.563,0,0,0-2.288-.472c-1.533,0-2.476.613-2.476,1.745v.047c0,.967.8,1.533,1.958,1.533,1.674,0,2.806-.92,2.806-2.217Z" transform="translate(-127.358 -270.923)" fill="#18227b"/>
      <path id="Tracé_650" data-name="Tracé 650" d="M196.176,286.337a3.69,3.69,0,0,1-.961,1.2,4.227,4.227,0,0,1-1.43.752,5.936,5.936,0,0,1-1.788.259,8.2,8.2,0,0,1-2.787-.505,8.667,8.667,0,0,1-2.49-1.369l.962-1.356a8.367,8.367,0,0,0,2.158,1.208,6.381,6.381,0,0,0,2.256.42,3.134,3.134,0,0,0,1.9-.543,1.737,1.737,0,0,0,.74-1.479v-.05a1.312,1.312,0,0,0-.259-.813,2.332,2.332,0,0,0-.7-.6,5.668,5.668,0,0,0-1.023-.456q-.579-.2-1.2-.369-.739-.222-1.492-.481a6.1,6.1,0,0,1-1.356-.654,3.31,3.31,0,0,1-.987-.987,2.671,2.671,0,0,1-.382-1.479v-.049a3.438,3.438,0,0,1,.32-1.492,3.34,3.34,0,0,1,.9-1.159,4.109,4.109,0,0,1,1.38-.74,5.633,5.633,0,0,1,1.738-.259,7.889,7.889,0,0,1,2.392.383,8.973,8.973,0,0,1,2.2,1.023l-.863,1.429a8.7,8.7,0,0,0-1.862-.9,5.9,5.9,0,0,0-1.911-.333,2.812,2.812,0,0,0-1.8.53,1.623,1.623,0,0,0-.666,1.319v.049a1.188,1.188,0,0,0,.271.776,2.375,2.375,0,0,0,.727.579,6.481,6.481,0,0,0,1.048.444q.592.2,1.233.395.741.222,1.468.493a5.765,5.765,0,0,1,1.318.691,3.364,3.364,0,0,1,.95,1.011,2.772,2.772,0,0,1,.357,1.455v.049A3.517,3.517,0,0,1,196.176,286.337Z" transform="translate(-130.172 -270.923)" fill="#18227b"/>
      <path id="Tracé_651" data-name="Tracé 651" d="M203.274,283.853a1.924,1.924,0,0,0,.57,1.592,2.338,2.338,0,0,0,1.5.451,3.684,3.684,0,0,0,1.782-.427v1.568a4.092,4.092,0,0,1-1.01.392,5.047,5.047,0,0,1-1.2.131,4.827,4.827,0,0,1-1.378-.19,2.818,2.818,0,0,1-1.1-.606,2.774,2.774,0,0,1-.725-1.081,4.34,4.34,0,0,1-.262-1.592v-8.146h-1.711v-1.6h1.711v-4.405h1.83v4.405h3.9v1.6h-3.9Z" transform="translate(-132.549 -269.938)" fill="#18227b"/>
      <path id="Tracé_652" data-name="Tracé 652" d="M219.858,275.328h1.792v13.216h-1.792v-2.456a5.745,5.745,0,0,1-1.6,1.686,4.985,4.985,0,0,1-2.744.77,4.28,4.28,0,0,1-1.8-.428,4.066,4.066,0,0,1-1.462-1,4.417,4.417,0,0,1-.919-1.545,5.869,5.869,0,0,1-.319-1.98v-8.261h1.816v7.812a3.922,3.922,0,0,0,.873,2.689,3.153,3.153,0,0,0,2.5.991,3.836,3.836,0,0,0,1.45-.271,3.255,3.255,0,0,0,1.156-.778,3.775,3.775,0,0,0,.767-1.215,4.168,4.168,0,0,0,.284-1.556Z" transform="translate(-134.61 -270.923)" fill="#18227b"/>
      <path id="Tracé_653" data-name="Tracé 653" d="M237.08,287.56V284.7a9.709,9.709,0,0,1-.86,1.066,5.912,5.912,0,0,1-1.054.9,4.893,4.893,0,0,1-1.3.6,5.422,5.422,0,0,1-1.587.218,5.764,5.764,0,0,1-2.2-.436,5.87,5.87,0,0,1-1.913-1.272,6.185,6.185,0,0,1-1.357-2.047,7.754,7.754,0,0,1,0-5.523,6.2,6.2,0,0,1,1.357-2.047,6.037,6.037,0,0,1,1.913-1.283,5.629,5.629,0,0,1,2.2-.449,5.549,5.549,0,0,1,1.6.218,5.377,5.377,0,0,1,1.307.581,5.577,5.577,0,0,1,1.054.848,7.627,7.627,0,0,1,.836,1.018v-7.157h1.865V287.56Zm-.3-8.59a4.588,4.588,0,0,0-1.018-1.518,4.748,4.748,0,0,0-1.453-.976,4.2,4.2,0,0,0-1.684-.35,4.506,4.506,0,0,0-1.72.325,4.017,4.017,0,0,0-1.392.94,4.466,4.466,0,0,0-.945,1.518,5.56,5.56,0,0,0-.352,2.037,5.4,5.4,0,0,0,.352,2,4.678,4.678,0,0,0,.956,1.53,4.129,4.129,0,0,0,1.4.976,4.316,4.316,0,0,0,1.7.338,4.2,4.2,0,0,0,1.684-.35,4.765,4.765,0,0,0,1.453-.976,4.559,4.559,0,0,0,1.018-1.53,5.136,5.136,0,0,0,.375-1.989A5.051,5.051,0,0,0,236.778,278.97Z" transform="translate(-137.402 -269.938)" fill="#18227b"/>
      <path id="Tracé_654" data-name="Tracé 654" d="M244.108,272.37v-2.432h2.075v2.432Zm.118,15.19V274.343h1.816V287.56Z" transform="translate(-140.655 -269.938)" fill="#18227b"/>
      <path id="Tracé_655" data-name="Tracé 655" d="M261.1,284.434a6.615,6.615,0,0,1-1.377,2.11,6.44,6.44,0,0,1-2.1,1.426,6.606,6.606,0,0,1-2.633.524,6.429,6.429,0,0,1-2.609-.524,6.6,6.6,0,0,1-2.072-1.414,6.357,6.357,0,0,1-1.366-2.085,6.638,6.638,0,0,1-.488-2.535,6.73,6.73,0,0,1,.488-2.548,6.4,6.4,0,0,1,3.45-3.536,6.664,6.664,0,0,1,7.35,1.415,6.349,6.349,0,0,1,1.366,2.084,6.659,6.659,0,0,1,.488,2.535A6.586,6.586,0,0,1,261.1,284.434ZM259.318,280a4.813,4.813,0,0,0-.987-1.568,4.746,4.746,0,0,0-1.488-1.058,4.406,4.406,0,0,0-1.853-.389,4.586,4.586,0,0,0-1.877.377,4.184,4.184,0,0,0-1.451,1.045,5.034,5.034,0,0,0-.939,1.557,5.278,5.278,0,0,0-.341,1.908,5.2,5.2,0,0,0,.354,1.922,4.765,4.765,0,0,0,.975,1.557,4.684,4.684,0,0,0,1.474,1.045,4.407,4.407,0,0,0,1.854.389,4.587,4.587,0,0,0,1.877-.377,4.384,4.384,0,0,0,1.463-1.034,4.737,4.737,0,0,0,.951-1.544,5.265,5.265,0,0,0,.342-1.909A5.2,5.2,0,0,0,259.318,280Z" transform="translate(-141.449 -270.923)" fill="#18227b"/>
    </g>
  </g>
</svg>
