<svg xmlns="http://www.w3.org/2000/svg" width="19.988" height="20" viewBox="0 0 19.988 20">
  <g id="Groupe_19624" data-name="Groupe 19624" transform="translate(0)">
    <path id="Tracé_32429" data-name="Tracé 32429" d="M21.99,7.2v9.59A4.835,4.835,0,0,1,16.79,22H14.2A4.832,4.832,0,0,1,9,16.8V7.2A4.819,4.819,0,0,1,14.19,2h2.6A4.832,4.832,0,0,1,21.99,7.2Z" transform="translate(-9 -2)" fill="#0370ee" opacity="0.4"/>
    <path id="Tracé_32430" data-name="Tracé 32430" d="M12.433,8.12l3.35,3.35a.754.754,0,0,1,0,1.06l-3.35,3.35a.75.75,0,0,1-1.06-1.06l2.07-2.07H2.752a.75.75,0,1,1,0-1.5h10.69l-2.07-2.07a.742.742,0,0,1-.22-.53.725.725,0,0,1,.22-.53A.737.737,0,0,1,12.433,8.12Z" transform="translate(3.988 -2)" fill="#0370ee"/>
  </g>
</svg>
