<svg xmlns="http://www.w3.org/2000/svg" width="40.758" height="40.778" viewBox="0 0 40.758 40.778">
  <path id="Tracé_32499" data-name="Tracé 32499" d="M40.266,11.333H23.18c-7.422,0-11.846,4.424-11.846,11.846V40.245c0,7.442,4.424,11.866,11.846,11.866H40.246c7.422,0,11.846-4.424,11.846-11.846V23.179C52.112,15.758,47.688,11.333,40.266,11.333ZM22.813,44.262a1.529,1.529,0,0,1-3.058,0V40.041a1.529,1.529,0,0,1,3.058,0Zm10.439,0a1.529,1.529,0,0,1-3.058,0V35.8a1.529,1.529,0,0,1,3.058,0Zm10.439,0a1.529,1.529,0,0,1-3.058,0V31.58a1.529,1.529,0,1,1,3.058,0Zm0-19.125a1.529,1.529,0,1,1-3.058,0V23.159A39.824,39.824,0,0,1,21.651,34.087a1.127,1.127,0,0,1-.367.041A1.543,1.543,0,0,1,19.8,32.966a1.525,1.525,0,0,1,1.121-1.855,36.844,36.844,0,0,0,17.84-10.419H36.209a1.529,1.529,0,0,1,0-3.058h5.974c.082,0,.143.041.224.041a1.615,1.615,0,0,1,.306.061A2.033,2.033,0,0,1,43,17.9c.061.041.122.061.184.1.02.02.02.041.041.041a2.145,2.145,0,0,1,.2.245.688.688,0,0,1,.143.224,1.015,1.015,0,0,1,.061.265,1.541,1.541,0,0,1,.061.326c0,.02.02.041.02.061v5.974Z" transform="translate(-11.334 -11.333)" fill="#448b96"/>
</svg>
